<svg width="67" height="84" viewBox="0 0 67 84" fill="none" xmlns="http://www.w3.org/2000/svg">
<g clip-path="url(#clip0_2003_4170)">
<path fill-rule="evenodd" clip-rule="evenodd" d="M25.305 66.396C20.7037 66.396 16.9394 62.6699 16.9394 58.1169C16.9394 53.5639 20.7037 49.8373 25.305 49.8373H42.0363C46.6332 49.8373 50.3969 46.1112 50.3969 41.5582C50.3969 37.0052 46.6338 33.2775 42.0363 33.2775H25.305C20.7037 33.2775 16.9394 29.5525 16.9394 24.9995C16.9394 20.4464 20.7037 16.7188 25.305 16.7188H58.762C63.3634 16.7188 67.1276 12.9938 67.1276 8.43803C67.1276 3.88226 63.3634 0.161133 58.762 0.161133H8.57656C3.97519 0.161133 0.210938 3.88719 0.210938 8.43912V25C0.210938 29.5531 3.97519 33.278 8.57656 33.278C13.1779 33.278 16.9394 37.0041 16.9394 41.5587C16.9394 46.1134 13.1763 49.8378 8.57656 49.8378C3.97685 49.8378 0.210938 53.5628 0.210938 58.1175V74.6762C0.210938 79.2314 3.97519 82.9569 8.57656 82.9569H58.762C63.3634 82.9569 67.1276 79.2319 67.1276 74.6762C67.1276 70.1204 63.3634 66.3965 58.762 66.3965H25.305V66.396Z" fill="#88FF2A"/>
</g>
<defs>
<clipPath id="clip0_2003_4170">
<rect width="66.5771" height="83.2196" fill="white" transform="translate(0.210938 0.161133)"/>
</clipPath>
</defs>
</svg>
